<!-- <svg focusable="false" xmlns="http://www.w3.org/2000/svg" viewBox="0 0 24 24"><path d="M15.5 14h-.79l-.28-.27A6.471 6.471 0 0 0 16 9.5 6.5 6.5 0 1 0 9.5 16c1.61 0 3.09-.59 4.23-1.57l.27.28v.79l5 4.99L20.49 19l-4.99-5zm-6 0C7.01 14 5 11.99 5 9.5S7.01 5 9.5 5 14 7.01 14 9.5 11.99 14 9.5 14z"></path></svg> -->
<svg xmlns="http://www.w3.org/2000/svg" viewBox="0 0 24 24" fill="#3A13E5" width="24" height="24">
  <path d="M0 0h24v24H0z" fill="none"/>
  <path d="M19.707 18.293l-4.348-4.348A6.472 6.472 0 0 0 14.5 10.5c0-3.584-2.916-6.5-6.5-6.5S1.5 6.916 1.5 10.5 4.416 17 8 17a6.472 6.472 0 0 0 3.445-1.012l4.348 4.348a.5.5 0 0 0 .708 0l1.414-1.414a.5.5 0 0 0 0-.707zM8 15a4.5 4.5 0 1 1 0-9 4.5 4.5 0 0 1 0 9z"/>
</svg>
